<svg id="Layer_1" data-name="Layer 1" xmlns="http://www.w3.org/2000/svg" xmlns:xlink="http://www.w3.org/1999/xlink" viewBox="0 0 66.41 66.48"><defs><style>.cls-1{fill:url(#linear-gradient);}.cls-2,.cls-3{fill:#fff;}.cls-2{fill-rule:evenodd;}</style><linearGradient id="linear-gradient" x1="3.66" y1="33.91" x2="63.66" y2="33.91" gradientUnits="userSpaceOnUse"><stop offset="0" stop-color="#00b025"/><stop offset="1" stop-color="#00d662"/></linearGradient></defs><circle class="cls-1" cx="33.66" cy="33.91" r="30"/><path class="cls-2" d="M47.43,36.39a12.83,12.83,0,0,1-19,11.3L21.26,50l2.32-6.93a12.87,12.87,0,1,1,23.85-6.66ZM34.59,25.53a10.87,10.87,0,0,0-8.75,17.22l-1.35,4,4.15-1.34a10.67,10.67,0,0,0,6,1.8,10.86,10.86,0,0,0,0-21.71Zm6.48,13.83c-.08-.13-.29-.21-.6-.37s-1.87-.92-2.15-1-.5-.16-.71.16-.82,1-1,1.24-.37.24-.68.08a8.48,8.48,0,0,1-2.53-1.57,9.89,9.89,0,0,1-1.76-2.19c-.18-.32,0-.49.14-.65s.32-.37.47-.55a2.41,2.41,0,0,0,.32-.53.58.58,0,0,0,0-.55c-.08-.16-.71-1.72-1-2.35s-.52-.61-.71-.61a4.93,4.93,0,0,0-.52,0,1.76,1.76,0,0,0-.92.4,3.53,3.53,0,0,0-1.1,2.64A6.25,6.25,0,0,0,29.6,36.8c.16.21,2.18,3.51,5.38,4.78s3.2.84,3.78.79a3.2,3.2,0,0,0,2.13-1.51,2.64,2.64,0,0,0,.18-1.5Zm0,0"/><path class="cls-3" d="M7.38,36.17l-.15-2,5.51-.44c2.49-.19,3.45.93,3.61,2.85a5.31,5.31,0,0,1-.1,1.45L14.64,38a3.29,3.29,0,0,0,.08-1c-.07-.82-.49-1.31-1.85-1.21Z"/><path class="cls-3" d="M13.66,23.63c2.76.81,3.94,3,3.21,5.43s-3.05,3.4-5.44,2.69S7.5,28.84,8.24,26.36,11.34,22.94,13.66,23.63ZM12,29.73c1.65.49,3,.06,3.41-1.22s-.62-2.38-2.26-2.86-3-.1-3.4,1.21S10.35,29.25,12,29.73Z"/><path class="cls-3" d="M12.71,17.86l7.14,5.07L18.7,24.55l-7.14-5.07Z"/><path class="cls-3" d="M20.29,21.89l-5.21-7,1.86-1.38L20.31,15a25.93,25.93,0,0,1,2.94,1.57l0,0A33.14,33.14,0,0,1,21,13.68l-1.52-2.06,1.46-1.08,5.21,7-1.67,1.24-3.52-1.61a32.94,32.94,0,0,1-3.06-1.58l0,0c.73.9,1.48,1.88,2.33,3l1.57,2.12Z"/><path class="cls-3" d="M36.44,15.75a9.54,9.54,0,0,1-2.9.63,4.87,4.87,0,0,1-3.61-1,4.23,4.23,0,0,1-1.38-3.13c-.13-2.91,1.91-4.67,4.78-4.8a5.9,5.9,0,0,1,2.45.31l-.34,1.6a5.05,5.05,0,0,0-2.06-.28,2.65,2.65,0,0,0-2.76,3,2.62,2.62,0,0,0,2.89,2.74,2.85,2.85,0,0,0,1-.17l-.09-1.84L33,12.84,33,11.29l3.26-.15Z"/><path class="cls-3" d="M40.26,8.32a16.78,16.78,0,0,1,2.53.77,4.42,4.42,0,0,1,2.4,1.66,2.21,2.21,0,0,1,.1,2,2.31,2.31,0,0,1-2.22,1.46v0a2.2,2.2,0,0,1,.5,1.95,24.53,24.53,0,0,0-.21,2.56L41.45,18a11.76,11.76,0,0,1,.16-2.13c.18-1.1-.07-1.52-.82-1.82l-.56-.21L39,17.1l-1.83-.71Zm.49,4.22.72.28c.93.35,1.65.1,1.92-.61s-.07-1.33-.92-1.67a5.6,5.6,0,0,0-.86-.26Z"/><path class="cls-3" d="M52.35,21.42c-2.05,2-4.51,2-6.31.17s-1.49-4.31.29-6.06,4.44-2,6.26-.18S54.07,19.72,52.35,21.42ZM47.82,17c-1.22,1.21-1.51,2.63-.58,3.57s2.38.61,3.6-.58,1.55-2.6.59-3.57S49,15.8,47.82,17Z"/><path class="cls-3" d="M58.2,24.13l-4.78,1.58c-1.44.47-2,1.26-1.67,2.22s1.2,1.3,2.67.82l4.79-1.58L59.83,29l-4.67,1.54c-2.57.85-4.22,0-4.93-2.22s.06-3.71,2.71-4.59l4.64-1.53Z"/><path class="cls-3" d="M60.08,33.5A16.52,16.52,0,0,1,60,36.19a4.2,4.2,0,0,1-1,2.59,2.57,2.57,0,0,1-2.11.74,2.83,2.83,0,0,1-2-1,4.14,4.14,0,0,1-.64-2.93,4.65,4.65,0,0,1,.1-.66l-3.11-.31.18-1.95Zm-4.15,1.57a3.59,3.59,0,0,0-.12.66c-.1,1.05.37,1.75,1.26,1.83s1.34-.43,1.43-1.41a3.83,3.83,0,0,0,0-.83Z"/></svg>