<?xml version="1.0" encoding="utf-8"?>
<!-- Generator: Adobe Illustrator 16.0.0, SVG Export Plug-In . SVG Version: 6.00 Build 0)  -->
<!DOCTYPE svg PUBLIC "-//W3C//DTD SVG 1.1//EN" "http://www.w3.org/Graphics/SVG/1.1/DTD/svg11.dtd">
<svg version="1.1" xmlns="http://www.w3.org/2000/svg" xmlns:xlink="http://www.w3.org/1999/xlink" x="0px" y="0px" width="35px"
	 height="35px" viewBox="0 0 35 35" enable-background="new 0 0 35 35" xml:space="preserve">
<g id="Layer_7">
</g>
<g id="Layer_1">
</g>
<g id="Layer_2">
</g>
<g id="Layer_6">
</g>
<g id="Layer_5">
</g>
<g id="Layer_3">
</g>
<g id="Layer_4">
	<g>
		<g>
			<g>
				<path d="M18.726,12.797l-2.104-2.382c-0.141-0.158-0.384-0.173-0.543-0.033c-0.159,0.141-0.175,0.384-0.033,0.543l1.672,1.892
					l-3.21-1.051c-0.169-0.055-0.351,0.037-0.406,0.207l-0.493,1.507c0.977-0.057,1.943,0.448,2.428,1.371
					c0.663,1.258,0.18,2.815-1.079,3.478l-0.723,0.381l2.186,0.714c0.169,0.057,0.351-0.036,0.406-0.205l1.978-6.047l-0.001-0.001
					C18.842,13.045,18.818,12.903,18.726,12.797z"/>
			</g>
		</g>
		<g>
			<g>
				<circle cx="6.441" cy="9.083" r="3.075"/>
			</g>
		</g>
		<g>
			<g>
				<path d="M14.99,15.401c-0.359-0.681-1.201-0.941-1.882-0.584l-3.64,1.916c-0.531-0.26-4.223-2.061-4.818-2.353l3.328,0.75
					c-0.204-1.099-1.159-1.899-2.276-1.907l-2.146-0.016c-1.298-0.009-2.354,1.044-2.349,2.34c0.02,7.726,0.025,8.111,0.054,8.655
					c0.008,1.05,0.358,1.543,1.131,1.8l0.64,0.212h-1.36C0.747,26.215,0,26.964,0,27.887s0.747,1.671,1.672,1.671h8.682
					c1.064,0,1.961-0.763,2.131-1.814c0.17-1.051-0.439-2.058-1.451-2.393L7.88,24.302l0.058-3.704L4.179,17.25
					c2.261,1.104,2.474,1.208,4.687,2.288c0.389,0.195,0.862,0.206,1.275-0.011l4.265-2.246
					C15.087,16.924,15.349,16.082,14.99,15.401z"/>
			</g>
		</g>
		<g>
			<g>
				<path d="M33.921,27.354h-0.897c0.662-0.219,0.321-0.106,0.425-0.141c0.685-0.23,0.757-0.752,0.763-1.408l0.016-5.481
					c0.003-0.809-0.627-1.496-1.461-1.538c-0.025-0.001-0.889-0.039-1.867,0.055c-0.738,0.072-1.17,0.826-1.16,1.513l0.025,1.571
					l1.905-1.933l-1.833,3.02c0,0-2.131,0.186-2.701,0.235c-0.508,0.044-0.879,0.493-0.834,0.995
					c0.043,0.507,0.493,0.878,0.993,0.834l3.168-0.275c0.263-0.02,0.546-0.175,0.707-0.448l1.784-2.939L32,24.825
					c-0.067,0.246-0.11,0.578-0.327,0.657l-3.923,1.303c-0.665,0.221-1.067,0.883-0.955,1.577c0.111,0.686,0.699,1.195,1.403,1.195
					h5.723c0.608,0,1.102-0.494,1.102-1.102S34.529,27.354,33.921,27.354z"/>
			</g>
		</g>
		<g>
			<g>
				<path d="M32.793,11.092c-0.292-0.289-0.687-0.45-1.097-0.446l-1.413,0.01c-0.411,0.002-0.802,0.169-1.089,0.463
					c-0.286,0.292-0.444,0.688-0.437,1.098l0.039,2.582c0.44-1.163,1.556-1.985,2.869-1.985c0.557,0,1.102,0.154,1.576,0.439
					l0.003-1.066C33.246,11.776,33.083,11.383,32.793,11.092z"/>
			</g>
		</g>
		<g>
			<g>
				<circle cx="30.682" cy="7.738" r="2.294"/>
			</g>
		</g>
		<g>
			<g>
				<circle cx="24.65" cy="12.797" r="2.294"/>
			</g>
		</g>
		<g>
			<g>
				<path d="M29.904,18.383c-0.229-0.16-0.435-0.351-0.616-0.573c-0.188-0.23-0.341-0.489-0.455-0.765l0.014,0.911l-1.636,0.543
					l0.004-1.253c0-0.411-0.162-0.805-0.453-1.094c-0.29-0.29-0.686-0.451-1.096-0.448l-1.413,0.01
					c-0.41,0.004-0.803,0.17-1.089,0.463c-0.287,0.294-0.444,0.689-0.438,1.098l0.024,1.571l1.905-1.933l-1.834,3.021
					c-1.686,0.146-1.08,0.094-2.7,0.235c-0.478,0.041-0.838,0.442-0.838,0.913c0,0.513,0.417,0.919,0.917,0.919
					c0.066,0,3.247-0.278,3.248-0.279c0.001,0,0.001,0,0.002,0c0.299-0.028,0.559-0.198,0.707-0.448l1.782-2.939l-0.878,3.381
					c-0.068,0.246-0.179,0.603-0.402,0.688c-2.3,0.764-1.34,0.444-3.922,1.303c-0.666,0.221-1.068,0.885-0.957,1.577
					c0.113,0.692,0.704,1.195,1.406,1.195h5.458c0.409-0.382,0.789-0.48,1.14-0.597c-0.449,0.039-0.472,0.043-0.572,0.043
					c-0.92,0-1.676-0.692-1.755-1.609c-0.084-0.935,0.569-1.762,1.501-1.896c0.098-0.015,0.044-0.01,0.24-0.026l0.004-0.974
					c0.077,0.001-0.372,0.001,1.707,0.001l-0.017-1.053C28.881,19.61,29.24,18.849,29.904,18.383z"/>
			</g>
		</g>
		<g>
			<g>
				<path d="M33.932,15.53c-0.174-1.136-1.151-1.949-2.266-1.949c-1.414,0-2.482,1.258-2.271,2.642
					c0.173,1.135,1.15,1.948,2.265,1.948C33.074,18.171,34.143,16.913,33.932,15.53z"/>
			</g>
		</g>
	</g>
</g>
</svg>
