<?xml version="1.0" encoding="utf-8"?>
<!-- Generator: Adobe Illustrator 16.0.0, SVG Export Plug-In . SVG Version: 6.00 Build 0)  -->
<!DOCTYPE svg PUBLIC "-//W3C//DTD SVG 1.1//EN" "http://www.w3.org/Graphics/SVG/1.1/DTD/svg11.dtd">
<svg version="1.1" xmlns="http://www.w3.org/2000/svg" xmlns:xlink="http://www.w3.org/1999/xlink" x="0px" y="0px" width="35px"
	 height="35px" viewBox="0 0 35 35" enable-background="new 0 0 35 35" xml:space="preserve">
<g id="Layer_7">
</g>
<g id="Layer_1">
	<g>
		<polygon points="1.625,24.229 17.905,28.681 34.271,24.229 34.271,30.012 17.948,34.396 1.625,30.076 		"/>
		<polygon points="5.718,19.747 17.905,23.06 30.211,19.747 30.211,24.034 17.964,27.51 5.718,24.229 		"/>
		<polygon points="9.778,16.563 17.964,18.772 26.215,16.563 26.215,19.356 17.964,21.598 9.778,19.422 		"/>
		<path d="M15.269,11.204c0,0-2.052-4.423,2.234-7.114c1.276-0.98,1.938-1.982,1.459-3.487c0,0,2.006,1.071,1.163,4.651
			c-0.273,0.865-0.775,3.169,0.706,3.944c0,0-1.436-2.645,0.958-4.149c0,0-0.685,1.642,1.573,4.491
			c0.205,0.249,2.713,4.856-2.622,6.931c0,0,0.091-1.71-1.391-2.941c-0.479-0.41-1.345-0.685-1.254-3.875
			c0,0-1.875,1.688-1.004,6.816c0,0-0.866-1.14-1.481-1.322c-0.615-0.182-1.391-0.388-1.688-1.392c0,0-0.273,1.232,1.277,2.326
			c0,0-3.396-1.299-3.352-3.944c0.046-0.479,0.022-1.823,2.257-4.104C14.105,8.034,13.441,10.668,15.269,11.204z"/>
	</g>
</g>
<g id="Layer_2">
</g>
<g id="Layer_6">
</g>
<g id="Layer_5">
</g>
<g id="Layer_3">
</g>
<g id="Layer_4">
</g>
</svg>
