<?xml version="1.0" encoding="utf-8"?>
<!-- Generator: Adobe Illustrator 16.0.0, SVG Export Plug-In . SVG Version: 6.00 Build 0)  -->
<!DOCTYPE svg PUBLIC "-//W3C//DTD SVG 1.1//EN" "http://www.w3.org/Graphics/SVG/1.1/DTD/svg11.dtd">
<svg version="1.1" id="Layer_1" xmlns="http://www.w3.org/2000/svg" xmlns:xlink="http://www.w3.org/1999/xlink" x="0px" y="0px"
	 width="35px" height="35px" viewBox="-280 0 35 35" enable-background="new -280 0 35 35" xml:space="preserve">
<g id="Layer_7">
</g>
<g id="Layer_1_1_">
</g>
<g id="Layer_2">
</g>
<g id="Layer_6">
</g>
<g id="Layer_5">
</g>
<g id="Layer_3">
</g>
<g id="Layer_4">
	<g>
		<path d="M-244.774,7.799c0,0.642-0.52,1.161-1.161,1.161h-17.743c-0.641,0-1.16-0.52-1.16-1.161V7.362
			c0-0.641,0.519-1.161,1.16-1.161h17.743c0.641,0,1.16,0.52,1.16,1.161V7.799L-244.774,7.799z"/>
		<path d="M-250.427,12.423c0,0.641-0.52,1.161-1.16,1.161h-12.091c-0.641,0-1.16-0.52-1.16-1.161v-0.437
			c0-0.641,0.519-1.161,1.16-1.161h12.091c0.641,0,1.16,0.52,1.16,1.161V12.423z"/>
		<path d="M-244.774,21.906c0,0.641-0.52,1.161-1.161,1.161h-17.743c-0.641,0-1.16-0.52-1.16-1.161v-0.438
			c0-0.641,0.519-1.16,1.16-1.16h17.743c0.641,0,1.16,0.52,1.16,1.16V21.906L-244.774,21.906z"/>
		<path d="M-250.427,26.529c0,0.64-0.52,1.162-1.16,1.162h-12.091c-0.641,0-1.16-0.521-1.16-1.162v-0.437
			c0-0.641,0.519-1.162,1.16-1.162h12.091c0.641,0,1.16,0.521,1.16,1.162V26.529z"/>
		<path d="M-271.271,6.201h-5.562c-1.898,0-3.437,1.539-3.437,3.437v3.735c0,1.898,1.538,3.437,3.437,3.437h4.017
			c1.899,0,3.437-1.539,3.437-3.437V9.869l-1.715,1.688v1.229c0,1.299-1.054,2.353-2.354,2.353h-2.752
			c-1.3,0-2.354-1.054-2.354-2.353v-2.559c0-1.301,1.053-2.354,2.354-2.354h3.231L-271.271,6.201z"/>
		<path d="M-272.816,20.137h-4.017c-1.898,0-3.437,1.538-3.437,3.437v3.735c0,1.897,1.538,3.436,3.437,3.436h4.017
			c1.899,0,3.437-1.539,3.437-3.436v-3.735C-269.379,21.674-270.917,20.137-272.816,20.137z M-271.095,26.72
			c0,1.301-1.054,2.354-2.354,2.354h-2.752c-1.299,0-2.354-1.053-2.354-2.354v-2.559c0-1.3,1.054-2.354,2.354-2.354h2.752
			c1.3,0,2.354,1.054,2.354,2.354V26.72z"/>
		<path d="M-268.335,6.252c-0.303-0.323-0.81-0.337-1.132-0.035l-5.307,5.133l-0.731-0.844c-0.304-0.322-0.811-0.336-1.133-0.034
			c-0.322,0.303-0.337,0.81-0.034,1.133l1.264,1.456c0.074,0.079,0.16,0.138,0.252,0.18c0.287,0.131,0.637,0.084,0.882-0.146
			l5.905-5.712C-268.047,7.082-268.031,6.575-268.335,6.252z"/>
	</g>
</g>
</svg>
