<?xml version="1.0" encoding="utf-8"?>
<!-- Generator: Adobe Illustrator 16.0.0, SVG Export Plug-In . SVG Version: 6.00 Build 0)  -->
<!DOCTYPE svg PUBLIC "-//W3C//DTD SVG 1.1//EN" "http://www.w3.org/Graphics/SVG/1.1/DTD/svg11.dtd">
<svg version="1.1" id="Layer_1" xmlns="http://www.w3.org/2000/svg" xmlns:xlink="http://www.w3.org/1999/xlink" x="0px" y="0px"
	 width="35px" height="35px" viewBox="280.14 0 35 35" enable-background="new 280.14 0 35 35" xml:space="preserve">
<g id="Layer_7">
</g>
<g id="Layer_2_1_">
</g>
<g id="Layer_6">
</g>
<g id="Layer_5">
</g>
<g id="Layer_3">
</g>
<g id="Layer_4">
</g>
<g>
	<g>
		<g>
			<path d="M280.14,12.4c0-2.2,0.5-3.9,1.5-5.1c1.1-1.3,2.6-2.1,4.5-2.5V7c-1.5,0.5-2.5,1.3-3,2.4c-0.3,0.6-0.4,1.2-0.3,1.8h3.4v5.7
				h-6.1V12.4z M290.34,12.4c0-2.2,0.5-3.9,1.6-5.1c1.1-1.2,2.5-2,4.5-2.4V7c-1.5,0.4-2.4,1.3-2.9,2.4c-0.3,0.6-0.4,1.2-0.3,1.8h3.4
				v5.7h-6.1v-4.5H290.34z"/>
		</g>
		<g>
			<path d="M298.941,27.9c1.499-0.5,2.399-1.3,2.899-2.4c0.3-0.6,0.399-1.2,0.3-1.8h-3.4V18h6.1v4.5c0,2.1-0.499,3.8-1.499,5.1
				c-1,1.3-2.5,2.1-4.5,2.5v-2.2H298.941z M309.14,27.9c1.5-0.4,2.5-1.3,3-2.5c0.2-0.5,0.3-1,0.3-1.7h-3.399V18h6.1v4.5
				c0,2.1-0.5,3.7-1.5,5s-2.5,2.3-4.5,2.7V27.9z"/>
		</g>
	</g>
	<rect x="280.14" fill="none" width="35" height="35"/>
</g>
</svg>
