<?xml version="1.0" encoding="utf-8"?>
<!-- Generator: Adobe Illustrator 16.0.0, SVG Export Plug-In . SVG Version: 6.00 Build 0)  -->
<!DOCTYPE svg PUBLIC "-//W3C//DTD SVG 1.1//EN" "http://www.w3.org/Graphics/SVG/1.1/DTD/svg11.dtd">
<svg version="1.1" xmlns="http://www.w3.org/2000/svg" xmlns:xlink="http://www.w3.org/1999/xlink" x="0px" y="0px" width="35px"
	 height="35px" viewBox="0 0 35 35" enable-background="new 0 0 35 35" xml:space="preserve">
<g id="Layer_7">
</g>
<g id="Layer_1">
</g>
<g id="Layer_2">
</g>
<g id="Layer_6">
</g>
<g id="Layer_5">
</g>
<g id="Layer_3">
</g>
<g id="Layer_4">
	<g>
		<g>
			<path d="M29.851,26.386l-5.997-5.996c-0.893,1.389-2.075,2.571-3.465,3.465l5.997,5.996c0.957,0.957,2.51,0.957,3.465,0
				C30.809,28.896,30.809,27.343,29.851,26.386L29.851,26.386z M29.851,26.386"/>
		</g>
		<path d="M24.034,14.233c0-5.413-4.389-9.802-9.801-9.802c-5.413,0-9.802,4.389-9.802,9.802c0,5.412,4.389,9.801,9.802,9.801
			C19.646,24.034,24.034,19.646,24.034,14.233L24.034,14.233z M14.233,21.584c-4.054,0-7.352-3.298-7.352-7.351
			c0-4.055,3.298-7.352,7.352-7.352s7.351,3.297,7.351,7.352C21.584,18.286,18.287,21.584,14.233,21.584L14.233,21.584z
			 M14.233,21.584"/>
		<path d="M8.516,14.233h1.634c0-2.252,1.832-4.084,4.084-4.084V8.516C11.081,8.516,8.516,11.08,8.516,14.233L8.516,14.233z
			 M8.516,14.233"/>
	</g>
</g>
</svg>
